<svg width="80" height="35" viewBox="0 0 80 35" fill="none" xmlns="http://www.w3.org/2000/svg">
<path d="M74.5583 15.985C74.3735 15.9936 74.1894 16.0119 74.0067 16.0398V14.4323C74.0562 13.3045 73.8562 12.1796 73.4206 11.1358C72.9851 10.0919 72.3243 9.15407 71.4842 8.38742C69.8687 7.00036 67.7858 6.25918 65.6445 6.30951C64.1779 6.29887 62.7256 6.59439 61.383 7.17659C61.2202 7.25026 61.0593 7.32582 60.9042 7.40516C59.5557 6.64857 58.0232 6.26969 56.4722 6.30951C55.1464 6.28608 53.8309 6.54375 52.6148 7.0651L52.115 6.57209H48.1311L46.1967 8.48185C44.3522 6.98892 42.0174 6.21352 39.633 6.30196C38.3296 6.29702 37.0347 6.50838 35.8024 6.9272C35.192 7.13649 34.6043 7.40547 34.048 7.73007V4.87391L30.5584 1.4321H26.4597L25.6055 2.27272C24.7327 1.47767 23.6224 0.982781 22.4406 0.86214C21.2589 0.741499 20.0693 1.00159 19.0499 1.60349C18.0306 2.20539 17.2363 3.11671 16.786 4.20104C16.3357 5.28537 16.2535 6.48436 16.5519 7.61857C16.1518 7.37448 15.7322 7.16286 15.2974 6.98577C14.1433 6.53009 12.9111 6.29792 11.6679 6.30196C11.4764 6.30196 11.2849 6.30195 11.0934 6.31706V4.87391L7.60176 1.4321H3.49156L0 4.87391V23.2747L1.99384 25.2411L0 27.2076V30.7249L3.49156 34.1666H70.517L74.0067 30.7249V27.2076L73.6044 26.8108C73.9201 26.871 74.2406 26.9032 74.5621 26.9072C76.0135 26.8806 77.3965 26.2932 78.4134 25.2714C79.4303 24.2496 80 22.875 80 21.4433C80 20.0115 79.4303 18.6369 78.4134 17.6151C77.3965 16.5933 76.0135 16.006 74.5621 15.9793L74.5583 15.985Z" fill="#111116"/>
<path d="M3.49121 23.2745V4.87378H7.58802V11.2605C8.12955 10.7323 8.78394 10.3303 9.50331 10.0836C10.1963 9.85674 10.9221 9.7425 11.6523 9.74548C12.4478 9.74017 13.2367 9.88708 13.9755 10.1781C14.6944 10.4627 15.3401 10.9014 15.8659 11.4626C16.4312 12.0798 16.8656 12.8024 17.1434 13.5877C17.4741 14.5359 17.6336 15.5339 17.6146 16.5364C17.6338 17.5705 17.4745 18.6002 17.1434 19.5815C16.8643 20.3951 16.4146 21.1417 15.8237 21.7728C15.2629 22.3546 14.5779 22.8063 13.8184 23.0951C13.0176 23.3966 12.1666 23.5478 11.3094 23.5409C10.5866 23.5478 9.86819 23.4288 9.18727 23.1895C8.53904 22.958 7.95051 22.5884 7.46352 22.1071V23.2707L3.49121 23.2745ZM7.58802 17.7001C7.57735 18.05 7.64373 18.3981 7.7826 18.7203C7.92147 19.0425 8.12957 19.3312 8.39247 19.5664C8.98596 20.075 9.75615 20.3371 10.5414 20.2974C10.9531 20.3157 11.3634 20.2384 11.7393 20.0717C12.1152 19.905 12.4462 19.6537 12.7057 19.3378C13.2771 18.5472 13.5551 17.5867 13.4929 16.6177C13.5501 15.6663 13.2719 14.7246 12.7057 13.9523C12.4462 13.6365 12.1152 13.3851 11.7393 13.2185C11.3634 13.0518 10.9531 12.9744 10.5414 12.9927C9.75894 12.9582 8.99347 13.2244 8.40585 13.7351C8.13288 13.9894 7.91857 14.2986 7.77746 14.6418C7.63635 14.9851 7.57174 15.3542 7.58802 15.7242V17.7001Z" fill="#E6B1A8"/>
<path d="M19.8574 23.2744V10.0155H23.9542V23.2744H19.8574Z" fill="#E6B1A8"/>
<path d="M26.4493 23.2745V4.87375H30.5481V23.2745H26.4493Z" fill="#E6B1A8"/>
<path d="M46.1388 17.4883H36.6812C36.6846 18.3414 37.0119 19.1623 37.5986 19.7891C37.8839 20.0469 38.2182 20.2463 38.5821 20.376C38.946 20.5057 39.3323 20.5631 39.7188 20.5447C40.3929 20.5975 41.0626 20.3994 41.5958 19.9893C41.959 19.6884 42.2402 19.3027 42.4137 18.8673L46.0527 19.5171C45.9092 20.045 45.6823 20.5473 45.3804 21.0056C45.0496 21.5067 44.6267 21.9424 44.1335 22.2901C43.5603 22.6881 42.9268 22.9941 42.2566 23.1968C41.4248 23.4447 40.5589 23.5632 39.6901 23.5482C38.7553 23.6015 37.8193 23.4657 36.9396 23.1493C36.0599 22.833 35.255 22.3426 34.5744 21.7083C33.9369 21.0308 33.4447 20.2334 33.1271 19.3638C32.8095 18.4943 32.6731 17.5704 32.7261 16.6477C32.7053 15.6209 32.8902 14.6003 33.2701 13.6441C33.6008 12.8273 34.1042 12.0893 34.7467 11.4794C35.3758 10.8978 36.1235 10.4554 36.9398 10.1817C37.8062 9.88867 38.7167 9.7424 39.6326 9.74906C40.5342 9.68612 41.4386 9.82312 42.2794 10.15C43.1202 10.4769 43.8762 10.9853 44.4917 11.6381C45.6368 13.0346 46.2228 14.7968 46.1388 16.591V17.4883ZM39.6269 12.7545C38.9807 12.742 38.3478 12.9362 37.8227 13.3079C37.2561 13.7585 36.8781 14.3996 36.7616 15.1082H42.2643C42.2391 14.4413 41.9512 13.8104 41.4617 13.3495C40.9478 12.9346 40.296 12.7226 39.6326 12.7545H39.6269Z" fill="#E6B1A8"/>
<path d="M48.1307 23.2745V10.0156H52.1146V11.693C52.5803 11.1109 53.1683 10.6353 53.8383 10.2989C54.6549 9.90842 55.5551 9.71853 56.4622 9.74542C57.4092 9.70451 58.3484 9.92986 59.1705 10.3952C59.831 10.7886 60.3629 11.3611 60.7027 12.0444C61.2195 11.2837 61.9448 10.6836 62.7942 10.314C63.6887 9.92821 64.6564 9.73504 65.6326 9.74732C66.9153 9.69449 68.1703 10.1246 69.1434 10.9506C69.6129 11.3978 69.978 11.9407 70.2132 12.5413C70.4484 13.1419 70.548 13.7858 70.5051 14.4283V23.2745H66.3891V15.2387C66.4101 14.935 66.3647 14.6304 66.256 14.3456C66.1473 14.0608 65.9778 13.8023 65.759 13.5876C65.2515 13.1799 64.606 12.9774 63.9529 13.021C63.3051 13.0145 62.6739 13.2242 62.1621 13.616C61.9091 13.7989 61.7051 14.0398 61.5676 14.3179C61.4301 14.596 61.3633 14.903 61.373 15.2122V23.2745H57.2456V15.2387C57.2648 14.9392 57.2185 14.639 57.1097 14.3587C57.001 14.0784 56.8324 13.8245 56.6154 13.6141C56.1176 13.2092 55.4821 13.0066 54.8381 13.0474C54.183 13.0372 53.543 13.2418 53.0186 13.6292C52.7653 13.8088 52.5608 14.0472 52.4231 14.3233C52.2855 14.5994 52.219 14.9047 52.2295 15.2122V23.2745H48.1307Z" fill="#E6B1A8"/>
<path d="M21.9068 8.34569C23.0386 8.34569 23.9561 7.44075 23.9561 6.32446C23.9561 5.20816 23.0386 4.30322 21.9068 4.30322C20.7749 4.30322 19.8574 5.20816 19.8574 6.32446C19.8574 7.44075 20.7749 8.34569 21.9068 8.34569Z" fill="#E6B1A8"/>
<path d="M74.5583 23.4689C75.6901 23.4689 76.6076 22.5639 76.6076 21.4476C76.6076 20.3313 75.6901 19.4264 74.5583 19.4264C73.4264 19.4264 72.5089 20.3313 72.5089 21.4476C72.5089 22.5639 73.4264 23.4689 74.5583 23.4689Z" fill="#E6B1A8"/>
<path d="M70.5166 27.213H3.49121V30.7284H70.5166V27.213Z" fill="#E6B1A8"/>
</svg>
