<svg width="25" height="24" viewBox="0 0 25 24" fill="none" xmlns="http://www.w3.org/2000/svg">
<g clip-path="url(#clip0_709_11723)">
<path d="M12.5 0C5.873 0 0.5 5.373 0.5 12C0.5 18.627 5.873 24 12.5 24C19.127 24 24.5 18.627 24.5 12C24.5 5.373 19.127 0 12.5 0ZM18.394 8.221L16.424 17.501C16.279 18.159 15.887 18.319 15.34 18.009L12.34 15.799L10.894 17.193C10.754 17.373 10.537 17.488 10.294 17.488C10.292 17.488 10.291 17.488 10.289 17.488L10.502 14.434L16.062 9.412C16.302 9.199 16.008 9.078 15.689 9.291L8.82 13.617L5.86 12.693C5.22 12.49 5.202 12.053 5.995 11.739L17.561 7.281C18.099 7.085 18.567 7.409 18.393 8.222L18.394 8.221Z" fill="white" fill-opacity="0.56"/>
</g>
<defs>
<clipPath id="clip0_709_11723">
<rect width="24" height="24" fill="white" transform="translate(0.5)"/>
</clipPath>
</defs>
</svg>
