<svg width="26" height="25" viewBox="0 0 26 25" fill="none" xmlns="http://www.w3.org/2000/svg">
<g clip-path="url(#clip0_709_11725)">
<path d="M13.129 5.91797C9.58027 5.91797 6.70557 8.77285 6.70557 12.3018C6.70557 13.6896 7.16155 14.9981 7.93475 16.0488L7.1219 18.4279L9.60009 17.6349C10.6112 18.3089 11.8404 18.6856 13.1489 18.6856C16.6976 18.6856 19.5922 15.8307 19.5922 12.3018C19.5723 8.77285 16.6778 5.91797 13.129 5.91797ZM16.8959 14.9386C16.7373 15.3747 15.9641 15.7911 15.6271 15.8307C15.29 15.8704 15.29 16.1083 13.3669 15.3747C11.4637 14.6214 10.2543 12.6983 10.1552 12.5595C10.0561 12.4406 9.38201 11.5484 9.38201 10.6364C9.38201 9.72447 9.85783 9.26848 10.0363 9.09005C10.2147 8.91162 10.4129 8.85215 10.5319 8.85215C10.6508 8.85215 10.7896 8.87197 10.8888 8.87197C11.0077 8.87197 11.1465 8.8125 11.3051 9.18918C11.4637 9.56587 11.8404 10.4778 11.88 10.577C11.9197 10.6761 11.9593 10.7752 11.8999 10.8942C11.8404 11.0131 11.8007 11.0924 11.7214 11.2114C11.6223 11.3105 11.5232 11.4493 11.4439 11.5286C11.3447 11.6277 11.2456 11.7269 11.3646 11.9053C11.4835 12.0837 11.8602 12.6983 12.4153 13.1939C13.129 13.8284 13.7436 14.0266 13.9221 14.1257C14.1005 14.2249 14.2194 14.205 14.3186 14.0861C14.4375 13.9671 14.7944 13.5508 14.9133 13.3525C15.0323 13.1741 15.1711 13.1939 15.3297 13.2534C15.5081 13.3129 16.4201 13.7689 16.6183 13.868C16.7968 13.9671 16.9355 14.0068 16.9752 14.0861C17.0347 14.1257 17.0347 14.5024 16.8959 14.9386Z" fill="white" fill-opacity="0.56"/>
<path d="M19.2153 0.0098877H6.76487C3.31523 0.0098877 0.5 2.82511 0.5 6.27476V18.745C0.5 22.1748 3.31523 24.9901 6.76487 24.9901H19.2351C22.6848 24.9901 25.5 22.1748 25.5 18.7252V6.27476C25.4802 2.82511 22.6649 0.0098877 19.2153 0.0098877ZM13.1289 19.8949C11.7807 19.8949 10.5317 19.5579 9.42149 18.9433L5.17883 20.2914L6.56661 16.2272C5.87272 15.0773 5.47621 13.7292 5.47621 12.3017C5.47621 8.09871 8.90603 4.70854 13.1289 4.70854C17.3517 4.70854 20.7815 8.09871 20.7815 12.3017C20.7815 16.5047 17.3517 19.8949 13.1289 19.8949Z" fill="white" fill-opacity="0.56"/>
</g>
<defs>
<clipPath id="clip0_709_11725">
<rect width="25" height="25" fill="white" transform="translate(0.5)"/>
</clipPath>
</defs>
</svg>
